<svg width="20" height="15" viewBox="0 0 20 15" fill="none" xmlns="http://www.w3.org/2000/svg">
<path id="Vector" d="M20 7.27273L16.3636 3.63636L16.3636 6.36364L8.18182 6.36364L8.18182 8.18182L16.3636 8.18182L16.3636 10.9091M-5.56327e-07 12.7273L-7.94752e-08 1.81818C-3.53665e-08 0.80909 0.818182 -8.38464e-07 1.81818 -7.94753e-07L12.7273 -3.17901e-07C13.2095 -2.96823e-07 13.6719 0.191558 14.0129 0.532533C14.3539 0.873508 14.5455 1.33597 14.5455 1.81818L14.5455 4.54545L12.7273 4.54545L12.7273 1.81818L1.81818 1.81818L1.81818 12.7273L12.7273 12.7273L12.7273 10L14.5455 10L14.5455 12.7273C14.5455 13.2095 14.3539 13.6719 14.0129 14.0129C13.6719 14.3539 13.2095 14.5455 12.7273 14.5455L1.81818 14.5455C1.33597 14.5455 0.873508 14.3539 0.532533 14.0129C0.191556 13.6719 -5.77405e-07 13.2095 -5.56327e-07 12.7273Z" fill="#CCCCCC"/>
</svg>
