<svg width="68" height="50" viewBox="0 0 68 50" fill="none" xmlns="http://www.w3.org/2000/svg">
<g id="Group 10989">
<g id="Group 10919">
<circle id="Ellipse 62" opacity="0.1" cx="43" cy="25" r="25" fill="#4DB5FF"/>
<path id="Vector" d="M41.2308 9.99548C37.9492 9.99548 35.0338 12.1085 34.0176 15.2274C32.9747 15.4424 31.9895 15.877 31.1277 16.5023C30.2659 17.1277 29.5471 17.9294 29.0193 18.8542C27.3734 21.6987 27.7493 25.2747 29.9541 27.7129C29.2734 29.755 29.507 31.9898 30.5942 33.839C32.2299 36.6936 35.5212 38.1566 38.7419 37.4758C39.4471 38.2717 40.3138 38.9081 41.2843 39.3425C42.2549 39.777 43.3069 39.9995 44.3702 39.9953C47.6517 39.9953 50.5672 37.8823 51.5834 34.7634C53.6965 34.3264 55.5151 33.0056 56.5716 31.1366C58.2275 28.2921 57.8517 24.7161 55.6472 22.2779V22.2679C55.9835 21.2584 56.1003 20.1888 55.9899 19.1306C55.8796 18.0724 55.5445 17.05 55.0072 16.1317C53.3711 13.2871 50.0794 11.8238 46.8691 12.5045C46.1607 11.7107 45.2917 11.0766 44.3196 10.644C43.3476 10.2114 42.2947 9.99039 41.2308 9.99548ZM41.2308 11.9462L41.2207 11.9563C42.5415 11.9563 43.8115 12.4135 44.8273 13.2569C44.7867 13.277 44.7053 13.3278 44.6445 13.3584L38.671 16.8023C38.3661 16.9751 38.1832 17.3002 38.1832 17.6558V25.7424L35.613 24.2593V17.5745C35.6124 16.0833 36.2038 14.653 37.2571 13.5976C38.3105 12.5422 39.7397 11.9485 41.2308 11.9462ZM48.4268 14.3005C49.4167 14.2986 50.3895 14.558 51.247 15.0526C52.1045 15.5472 52.8162 16.2594 53.3102 17.1173C53.9603 18.2552 54.204 19.586 53.9805 20.8762C53.9398 20.8456 53.8588 20.8053 53.8077 20.7747L47.8342 17.3203C47.684 17.2353 47.5142 17.1907 47.3416 17.1907C47.169 17.1907 46.9993 17.2353 46.849 17.3203L39.8492 21.3636V18.397L45.6297 15.0546C46.4796 14.5619 47.4443 14.3016 48.4268 14.3001V14.3005ZM33.6522 17.3711V24.4724C33.6522 24.828 33.835 25.143 34.1399 25.3259L41.1293 29.3591L38.5486 30.8523L32.7782 27.5199C31.4886 26.7726 30.5482 25.5441 30.1636 24.1041C29.7789 22.6641 29.9812 21.1303 30.7263 19.8394C31.3835 18.7002 32.4186 17.8272 33.6522 17.3711ZM47.0419 19.1285L52.8225 22.4608C55.5147 24.0152 56.4287 27.449 54.8743 30.1413L54.8844 30.1514C54.2242 31.2893 53.1878 32.1629 51.9585 32.61V25.5084C51.9585 25.1527 51.7756 24.8277 51.4707 24.6552L44.4713 20.6116L47.0419 19.1285ZM42.7953 21.5771L45.7417 23.2837V26.6869L42.7953 28.3936L39.8492 26.6869V23.2837L42.7953 21.5771ZM47.4278 24.2593L49.9981 25.7424V32.4171C49.9981 35.5258 47.4786 38.0453 44.3802 38.0453V38.0353C43.0696 38.0353 41.7895 37.5781 40.7837 36.735C40.8244 36.7149 40.9158 36.6637 40.9666 36.6331L46.9401 33.1892C47.245 33.0164 47.4379 32.6914 47.4275 32.3357L47.4278 24.2593ZM45.7514 28.6276V31.5938L39.9709 34.9261C37.2786 36.4704 33.8448 35.5561 32.2904 32.8739H32.3005C31.6403 31.7461 31.4063 30.4052 31.6298 29.115C31.6705 29.1456 31.7519 29.1859 31.8026 29.2165L37.7761 32.6709C37.9264 32.7558 38.0961 32.8005 38.2687 32.8005C38.4414 32.8005 38.6111 32.7558 38.7613 32.6709L45.7514 28.6276Z" fill="#4DB5FF"/>
</g>
<path id="+" d="M0 26.28V23.498H4.888V19H7.722V23.498H12.584V26.28H7.722V30.778H4.888V26.28H0Z" fill="#4DB5FF"/>
</g>
</svg>
