<svg width="22" height="33" viewBox="0 0 22 33" fill="none" xmlns="http://www.w3.org/2000/svg">
<g id="Vector" filter="url(#filter0_d_10_3526)">
<path d="M17.4586 25.588C17.8054 25.9383 18 26.4113 18 26.9043C18 27.3973 17.8054 27.8703 17.4586 28.2206C17.2883 28.3935 17.0852 28.5309 16.8613 28.6246C16.6374 28.7184 16.3971 28.7667 16.1544 28.7667C15.9117 28.7667 15.6714 28.7184 15.4475 28.6246C15.2236 28.5309 15.0205 28.3935 14.8502 28.2206L4.54056 17.701C4.19419 17.3499 4 16.8765 4 16.3833C4 15.8901 4.19419 15.4168 4.54056 15.0657L14.8502 4.54607C15.0205 4.37312 15.2236 4.23578 15.4475 4.14203C15.6714 4.04828 15.9117 4 16.1544 4C16.3971 4 16.6374 4.04828 16.8613 4.14203C17.0852 4.23578 17.2883 4.37312 17.4586 4.54607C17.8054 4.89637 18 5.36941 18 5.86237C18 6.35533 17.8054 6.82837 17.4586 7.17867L9.00359 16.3874L17.4586 25.588Z" fill="white"/>
</g>
<defs>
<filter id="filter0_d_10_3526" x="0" y="0" width="22" height="32.7667" filterUnits="userSpaceOnUse" color-interpolation-filters="sRGB">
<feFlood flood-opacity="0" result="BackgroundImageFix"/>
<feColorMatrix in="SourceAlpha" type="matrix" values="0 0 0 0 0 0 0 0 0 0 0 0 0 0 0 0 0 0 127 0" result="hardAlpha"/>
<feOffset/>
<feGaussianBlur stdDeviation="2"/>
<feComposite in2="hardAlpha" operator="out"/>
<feColorMatrix type="matrix" values="0 0 0 0 0 0 0 0 0 0 0 0 0 0 0 0 0 0 0.3 0"/>
<feBlend mode="normal" in2="BackgroundImageFix" result="effect1_dropShadow_10_3526"/>
<feBlend mode="normal" in="SourceGraphic" in2="effect1_dropShadow_10_3526" result="shape"/>
</filter>
</defs>
</svg>
