<svg width="50" height="50" viewBox="0 0 50 50" fill="none" xmlns="http://www.w3.org/2000/svg">
<g id="Group 10919">
<circle id="Ellipse 62" opacity="0.1" cx="25" cy="25" r="25" fill="#4DB5FF"/>
<path id="Vector" d="M23.2298 9.99227C19.9483 9.99227 17.0328 12.1053 16.0166 15.2242C14.9737 15.4392 13.9886 15.8738 13.1267 16.4991C12.2649 17.1245 11.5461 17.9262 11.0183 18.851C9.37246 21.6955 9.74828 25.2715 11.9531 27.7097C11.2724 29.7518 11.5061 31.9866 12.5932 33.8358C14.2289 36.6904 17.5202 38.1534 20.7409 37.4726C21.4461 38.2685 22.3128 38.9049 23.2834 39.3393C24.2539 39.7738 25.3059 39.9963 26.3692 39.9921C29.6507 39.9921 32.5662 37.8791 33.5824 34.7602C35.6955 34.3232 37.5141 33.0024 38.5706 31.1334C40.2265 28.2889 39.8507 24.7129 37.6462 22.2747V22.2646C37.9825 21.2552 38.0993 20.1856 37.989 19.1274C37.8786 18.0692 37.5435 17.0468 37.0062 16.1285C35.3701 13.2839 32.0784 11.8206 28.8682 12.5013C28.1597 11.7075 27.2907 11.0734 26.3187 10.6408C25.3466 10.2082 24.2937 9.98718 23.2298 9.99227ZM23.2298 11.943L23.2197 11.9531C24.5405 11.9531 25.8105 12.4102 26.8264 13.2537C26.7857 13.2738 26.7043 13.3246 26.6435 13.3552L20.67 16.7991C20.3651 16.9719 20.1822 17.2969 20.1822 17.6526V25.7392L17.612 24.256V17.5713C17.6114 16.0801 18.2028 14.6498 19.2561 13.5944C20.3095 12.539 21.7387 11.9453 23.2298 11.943ZM30.4258 14.2973C31.4157 14.2954 32.3886 14.5548 33.246 15.0494C34.1035 15.544 34.8152 16.2562 35.3092 17.1141C35.9594 18.252 36.2031 19.5828 35.9795 20.873C35.9388 20.8424 35.8579 20.8021 35.8067 20.7715L29.8333 17.3171C29.683 17.2321 29.5133 17.1875 29.3406 17.1875C29.168 17.1875 28.9983 17.2321 28.848 17.3171L21.8482 21.3604V18.3938L27.6288 15.0514C28.4787 14.5587 29.4434 14.2984 30.4258 14.2969V14.2973ZM15.6512 17.3679V24.4692C15.6512 24.8248 15.8341 25.1398 16.139 25.3227L23.1283 29.3559L20.5476 30.849L14.7772 27.5167C13.4876 26.7694 12.5473 25.5409 12.1626 24.1009C11.7779 22.6609 11.9803 21.1271 12.7253 19.8362C13.3825 18.697 14.4176 17.824 15.6512 17.3679ZM29.0409 19.1253L34.8215 22.4576C37.5138 24.012 38.4277 27.4458 36.8734 30.1381L36.8834 30.1482C36.2232 31.2861 35.1869 32.1597 33.9575 32.6068V25.5052C33.9575 25.1495 33.7747 24.8245 33.4698 24.652L26.4703 20.6084L29.0409 19.1253ZM24.7943 21.5738L27.7407 23.2805V26.6837L24.7943 28.3904L21.8482 26.6837V23.2805L24.7943 21.5738ZM29.4268 24.256L31.9971 25.7392V32.4139C31.9971 35.5226 29.4776 38.0421 26.3793 38.0421V38.032C25.0686 38.032 23.7885 37.5749 22.7827 36.7318C22.8234 36.7116 22.9148 36.6605 22.9656 36.6299L28.9391 33.186C29.244 33.0132 29.4369 32.6882 29.4265 32.3325L29.4268 24.256ZM27.7504 28.6244V31.5906L21.9699 34.9229C19.2776 36.4672 15.8438 35.5529 14.2894 32.8707H14.2995C13.6393 31.7429 13.4053 30.402 13.6288 29.1118C13.6695 29.1424 13.7509 29.1827 13.8016 29.2133L19.7751 32.6677C19.9254 32.7526 20.0951 32.7973 20.2677 32.7973C20.4404 32.7973 20.6101 32.7526 20.7604 32.6677L27.7504 28.6244Z" fill="#4DB5FF"/>
</g>
</svg>
