<svg width="56" height="56" viewBox="0 0 56 56" fill="none" xmlns="http://www.w3.org/2000/svg">
<g id="Button">
<circle id="Background" cx="28" cy="28" r="26.5" fill="#494AF8" stroke="white" stroke-width="3"/>
<path id="Icon" d="M22.6325 30.1616C22.4136 30.3784 22.1179 30.5 21.8098 30.5C21.5017 30.5 21.2061 30.3784 20.9871 30.1616C20.879 30.0552 20.7932 29.9283 20.7346 29.7883C20.676 29.6484 20.6458 29.4982 20.6458 29.3465C20.6458 29.1948 20.676 29.0446 20.7346 28.9047C20.7932 28.7647 20.879 28.6378 20.9871 28.5314L27.5619 22.0879C27.7813 21.8714 28.0772 21.75 28.3854 21.75C28.6937 21.75 28.9895 21.8714 29.2089 22.0879L35.7837 28.5314C35.8918 28.6378 35.9776 28.7647 36.0362 28.9047C36.0948 29.0446 36.125 29.1948 36.125 29.3465C36.125 29.4982 36.0948 29.6484 36.0362 29.7883C35.9776 29.9283 35.8918 30.0552 35.7837 30.1616C35.5648 30.3784 35.2691 30.5 34.961 30.5C34.6529 30.5 34.3573 30.3784 34.1383 30.1616L28.3829 24.8772L22.6325 30.1616Z" fill="white"/>
</g>
</svg>
