<svg width="15" height="20" viewBox="0 0 15 20" fill="none" xmlns="http://www.w3.org/2000/svg">
<path id="Vector" d="M7.27273 0L3.63636 3.63636L6.36364 3.63636L6.36364 11.8182H8.18182L8.18182 3.63636L10.9091 3.63636M12.7273 20L1.81818 20C0.809091 20 0 19.1818 0 18.1818L0 7.27273C0 6.79052 0.191558 6.32805 0.532533 5.98708C0.873508 5.6461 1.33597 5.45455 1.81818 5.45455L4.54545 5.45455V7.27273L1.81818 7.27273L1.81818 18.1818L12.7273 18.1818L12.7273 7.27273H10L10 5.45455H12.7273C13.2095 5.45455 13.6719 5.6461 14.0129 5.98708C14.3539 6.32805 14.5455 6.79052 14.5455 7.27273L14.5455 18.1818C14.5455 18.664 14.3539 19.1265 14.0129 19.4675C13.6719 19.8084 13.2095 20 12.7273 20Z" fill="#CCCCCC"/>
</svg>
